<?xml version="1.0" encoding="UTF-8"?>
<!DOCTYPE svg PUBLIC "-//W3C//DTD SVG 1.1//EN" "http://www.w3.org/Graphics/SVG/1.1/DTD/svg11.dtd">
<svg xmlns="http://www.w3.org/2000/svg" version="1.1" width="347px" height="347px" style="shape-rendering:geometricPrecision; text-rendering:geometricPrecision; image-rendering:optimizeQuality; fill-rule:evenodd; clip-rule:evenodd" xmlns:xlink="http://www.w3.org/1999/xlink">
<g><path style="opacity:1" fill="#f3f4f3" d="M 139.5,4.5 C 149.411,2.61078 156.911,5.94411 162,14.5C 163.405,18.2166 164.905,21.8832 166.5,25.5C 167.7,24.4688 169.034,23.6355 170.5,23C 178.11,21.4228 185.777,20.7562 193.5,21C 204.388,25.6104 215.388,29.9438 226.5,34C 227.38,35.3561 227.714,36.8561 227.5,38.5C 233.263,38.7827 234.93,41.616 232.5,47C 235.032,47.6122 235.865,49.1122 235,51.5C 230.697,53.8253 226.197,54.1586 221.5,52.5C 221.657,53.8734 221.49,55.2068 221,56.5C 219.488,57.2567 218.154,58.2567 217,59.5C 214.952,66.4308 214.452,73.4308 215.5,80.5C 226.013,82.9094 234.68,88.0761 241.5,96C 239.946,104.157 238.446,112.323 237,120.5C 234.359,125.641 230.526,129.641 225.5,132.5C 223.334,142.162 221.167,151.829 219,161.5C 211.825,205.55 204.325,249.55 196.5,293.5C 199.225,299.126 201.559,304.959 203.5,311C 202.054,319.51 200.554,328.01 199,336.5C 187.461,340.812 175.627,341.646 163.5,339C 146.918,337.188 130.918,333.188 115.5,327C 110.983,325.15 108.317,321.816 107.5,317C 108.908,307.289 111.075,297.789 114,288.5C 117.339,286.327 120.172,283.66 122.5,280.5C 124.246,270.105 126.246,259.772 128.5,249.5C 119.668,246.751 111.335,242.917 103.5,238C 101.98,236.115 100.98,233.949 100.5,231.5C 108.608,185.186 116.608,138.853 124.5,92.5C 109.258,84.0283 103.425,71.0283 107,53.5C 108.842,36.0128 116.342,21.5128 129.5,10C 132.767,7.8703 136.1,6.03697 139.5,4.5 Z M 145.5,8.5 C 148.311,8.82574 150.978,9.65907 153.5,11C 158.925,17.0973 161.925,24.2639 162.5,32.5C 150.804,49.6976 139.304,67.0309 128,84.5C 123.123,86.5194 119.457,85.1861 117,80.5C 109.541,54.5739 115.708,32.4072 135.5,14C 138.767,11.8703 142.1,10.037 145.5,8.5 Z M 159.5,74.5 C 161.764,72.6863 164.097,70.853 166.5,69C 167.483,68.4092 168.15,68.7425 168.5,70C 166.881,73.9662 163.881,75.4662 159.5,74.5 Z M 148.5,81.5 C 149.043,81.56 149.376,81.8933 149.5,82.5C 147.579,91.104 145.913,99.7707 144.5,108.5C 146.092,113.398 148.092,118.065 150.5,122.5C 142.957,163.424 135.957,204.424 129.5,245.5C 123.952,243.393 118.619,240.726 113.5,237.5C 112.343,234.216 112.176,230.882 113,227.5C 121.132,181.701 129.799,136.034 139,90.5C 142.667,87.9988 145.834,84.9988 148.5,81.5 Z M 151.5,144.5 C 152.376,144.369 153.043,144.702 153.5,145.5C 154.366,147.432 155.033,149.432 155.5,151.5C 154.774,155.522 153.941,159.522 153,163.5C 152.311,164.357 151.478,165.023 150.5,165.5C 149.249,158.428 149.582,151.428 151.5,144.5 Z M 212.5,154.5 C 213.998,160.525 213.498,166.525 211,172.5C 209.198,166.329 209.698,160.329 212.5,154.5 Z M 144.5,191.5 C 145.942,193.54 146.942,195.873 147.5,198.5C 146.668,202.155 145.835,205.821 145,209.5C 144.047,211.455 142.713,213.122 141,214.5C 140.04,206.474 141.207,198.808 144.5,191.5 Z M 204.5,203.5 C 205.724,209.602 204.89,215.602 202,221.5C 200.858,215.167 201.691,209.167 204.5,203.5 Z M 135.5,239.5 C 136.75,239.577 137.583,240.244 138,241.5C 139.244,248.962 137.577,255.628 133,261.5C 132.056,260.737 131.556,259.737 131.5,258.5C 132.103,251.994 133.437,245.66 135.5,239.5 Z M 195.5,253.5 C 197.046,259.385 196.212,265.052 193,270.5C 191.995,264.538 192.828,258.871 195.5,253.5 Z"/></g>
</svg>
