<?xml version="1.0" encoding="UTF-8"?>
<!DOCTYPE svg PUBLIC "-//W3C//DTD SVG 1.1//EN" "http://www.w3.org/Graphics/SVG/1.1/DTD/svg11.dtd">
<svg xmlns="http://www.w3.org/2000/svg" version="1.1" width="347px" height="347px" style="shape-rendering:geometricPrecision; text-rendering:geometricPrecision; image-rendering:optimizeQuality; fill-rule:evenodd; clip-rule:evenodd" xmlns:xlink="http://www.w3.org/1999/xlink">
<g><path style="opacity:0.968" fill="#000000" d="M 154.5,16.5 C 164.549,15.7784 174.382,15.1117 184,14.5C 184.953,16.5922 186.286,16.9255 188,15.5C 190.868,19.2933 194.701,21.2933 199.5,21.5C 200.568,22.4345 201.901,22.7678 203.5,22.5C 205.109,23.7709 206.942,24.7709 209,25.5C 209.333,25.1667 209.667,24.8333 210,24.5C 210.879,27.3463 212.546,28.013 215,26.5C 216.324,27.8802 217.657,28.2135 219,27.5C 220.174,29.6709 222.007,30.6709 224.5,30.5C 224.5,32.1667 224.5,33.8333 224.5,35.5C 227.073,35.1485 229.406,35.6485 231.5,37C 230.366,38.016 230.699,38.6827 232.5,39C 231.833,41.3333 231.167,43.6667 230.5,46C 231.736,47.0848 233.069,47.9181 234.5,48.5C 234.174,50.6607 233.174,52.4941 231.5,54C 227.074,54.6882 223.24,55.1882 220,55.5C 219,54.8333 218,54.1667 217,53.5C 215.837,55.2852 215.17,57.2852 215,59.5C 213.887,58.2889 212.72,58.2889 211.5,59.5C 210.548,61.0453 210.215,62.712 210.5,64.5C 209.539,66.2646 209.205,68.2646 209.5,70.5C 208.746,73.0227 208.08,75.6894 207.5,78.5C 208.209,81.3844 209.209,84.051 210.5,86.5C 210.215,88.288 210.548,89.9547 211.5,91.5C 217.946,94.1021 224.279,95.7688 230.5,96.5C 234.497,98.6506 238.83,99.9839 243.5,100.5C 243.5,101.5 243.5,102.5 243.5,103.5C 245.308,103.491 246.975,103.991 248.5,105C 247.639,109.59 246.972,114.257 246.5,119C 246.559,120.436 246.892,121.769 247.5,123C 245.275,125.025 244.941,127.358 246.5,130C 243.552,133.946 242.219,138.446 242.5,143.5C 241.532,145.607 241.198,147.941 241.5,150.5C 240.193,152.223 240.193,154.057 241.5,156C 239.67,159.378 238.337,163.045 237.5,167C 237.559,168.436 237.892,169.769 238.5,171C 236.808,172.401 236.141,174.234 236.5,176.5C 235.532,178.607 235.198,180.941 235.5,183.5C 234.686,187.078 233.686,190.744 232.5,194.5C 231.479,205.697 229.646,217.03 227,228.5C 226.073,236.51 225.073,244.51 224,252.5C 223.667,252.167 223.333,251.833 223,251.5C 222.348,256.077 221.515,260.577 220.5,265C 220.833,265.333 221.167,265.667 221.5,266C 217.341,285.792 213.674,305.625 210.5,325.5C 209.532,327.607 209.198,329.941 209.5,332.5C 209.095,335.864 207.762,338.864 205.5,341.5C 204.508,341.328 203.842,341.662 203.5,342.5C 200.5,342.5 197.5,342.5 194.5,342.5C 181.466,341.429 168.466,339.762 155.5,337.5C 142.599,335.158 130.265,332.825 118.5,330.5C 117.081,329.549 115.415,329.216 113.5,329.5C 113.209,328.351 112.376,327.684 111,327.5C 108.538,326.841 106.038,326.507 103.5,326.5C 101.54,324.79 99.3732,324.457 97,325.5C 92.7795,324.275 90.2795,321.441 89.5,317C 91.8758,300.508 94.8758,284.175 98.5,268C 96.236,267.764 94.0693,267.264 92,266.5C 91.6667,266.833 91.3333,267.167 91,267.5C 90.3818,264.203 88.7151,262.537 86,262.5C 85.5,260.5 85,258.5 84.5,256.5C 85.3988,249.082 86.5654,241.416 88,233.5C 88.3333,233.833 88.6667,234.167 89,234.5C 90.3333,226.5 91.6667,218.5 93,210.5C 94.5385,209.454 94.7052,208.121 93.5,206.5C 96.4832,192.942 99.1499,179.275 101.5,165.5C 103.49,155.272 105.49,144.939 107.5,134.5C 108.461,132.735 108.795,130.735 108.5,128.5C 109.461,126.735 109.795,124.735 109.5,122.5C 110.725,121.848 111.392,120.681 111.5,119C 112.446,112.825 113.446,106.658 114.5,100.5C 114.709,99.0055 115.376,97.8388 116.5,97C 115.919,96.1074 115.585,95.1074 115.5,94C 117.199,91.4032 118.199,88.5698 118.5,85.5C 119.249,84.469 119.915,83.3024 120.5,82C 118.324,81.8371 116.491,81.0037 115,79.5C 113.927,80.2797 112.76,80.113 111.5,79C 112.833,78.3333 112.833,77.6667 111.5,77C 110.552,76.5172 109.552,76.3505 108.5,76.5C 108.672,75.5084 108.338,74.8417 107.5,74.5C 106.963,72.2888 105.963,70.2888 104.5,68.5C 105.903,66.5827 105.57,65.5827 103.5,65.5C 103.5,59.8333 103.5,54.1667 103.5,48.5C 104.601,44.8724 105.935,41.2057 107.5,37.5C 106.282,36.1973 106.615,35.1973 108.5,34.5C 107.098,33.1575 107.431,32.3242 109.5,32C 109.167,31.6667 108.833,31.3333 108.5,31C 109.448,30.5172 110.448,30.3505 111.5,30.5C 111.966,28.7988 111.966,27.2988 111.5,26C 113.063,25.2411 114.063,24.0744 114.5,22.5C 116.027,22.573 117.027,21.9063 117.5,20.5C 119.262,19.7377 120.262,18.4044 120.5,16.5C 122.389,15.3481 124.389,14.3481 126.5,13.5C 131.048,12.8076 135.548,12.1409 140,11.5C 140.583,13.0016 141.416,14.3349 142.5,15.5C 143.989,15.5331 145.322,16.0331 146.5,17C 146.167,17.3333 145.833,17.6667 145.5,18C 147.041,19.5793 148.208,21.4127 149,23.5C 150.666,21.0043 152.5,18.671 154.5,16.5 Z M 140.5,21.5 C 142.379,21.3932 142.712,21.8932 141.5,23C 142.973,23.7096 143.64,24.8762 143.5,26.5C 144.194,28.97 144.194,31.3033 143.5,33.5C 139.212,41.735 134.879,49.735 130.5,57.5C 128.265,63.1384 125.598,68.6384 122.5,74C 120.473,74.4978 118.473,74.3311 116.5,73.5C 115.287,73.2528 114.62,72.5862 114.5,71.5C 115.833,71.1667 115.833,70.8333 114.5,70.5C 113.632,68.5979 112.632,66.7645 111.5,65C 112.762,60.6794 112.762,56.3461 111.5,52C 111.755,50.6739 112.422,49.6739 113.5,49C 113.384,47.7318 113.051,46.3985 112.5,45C 114.807,44.6458 115.141,43.6458 113.5,42C 114.309,40.2158 114.976,38.3825 115.5,36.5C 115.868,34.8247 116.868,33.8247 118.5,33.5C 118.328,32.5084 118.662,31.8417 119.5,31.5C 119.263,30.209 119.596,29.209 120.5,28.5C 120.973,27.0937 121.973,26.427 123.5,26.5C 123.427,24.9731 124.094,23.9731 125.5,23.5C 126.401,21.2729 128.067,20.2729 130.5,20.5C 130.484,18.5159 131.484,17.5159 133.5,17.5C 135.5,18 137.5,18.5 139.5,19C 140.252,19.6708 140.586,20.5041 140.5,21.5 Z M 150.5,81.5 C 152.564,81.687 154.564,82.187 156.5,83C 154.167,83.6667 151.833,83.6667 149.5,83C 150.056,82.6174 150.389,82.1174 150.5,81.5 Z"/></g>
<g><path style="opacity:0.004" fill="#000000" d="M 120.5,16.5 C 119.833,15.1667 119.833,15.1667 120.5,16.5 Z"/></g>
<g><path style="opacity:0.004" fill="#000000" d="M 154.5,16.5 C 153.833,15.1667 153.833,15.1667 154.5,16.5 Z"/></g>
<g><path style="opacity:0.004" fill="#000000" d="M 119.5,16.5 C 118.833,17.1667 118.833,17.1667 119.5,16.5 Z"/></g>
<g><path style="opacity:0.004" fill="#000000" d="M 117.5,20.5 C 116.833,19.1667 116.833,19.1667 117.5,20.5 Z"/></g>
<g><path style="opacity:0.004" fill="#000000" d="M 199.5,20.5 C 200.833,21.1667 200.833,21.1667 199.5,20.5 Z"/></g>
<g><path style="opacity:0.004" fill="#000000" d="M 114.5,22.5 C 113.833,21.1667 113.833,21.1667 114.5,22.5 Z"/></g>
<g><path style="opacity:0.004" fill="#000000" d="M 203.5,21.5 C 204.833,22.1667 204.833,22.1667 203.5,21.5 Z"/></g>
<g><path style="opacity:0.004" fill="#000000" d="M 103.5,48.5 C 102.833,47.1667 102.833,47.1667 103.5,48.5 Z"/></g>
<g><path style="opacity:0.004" fill="#000000" d="M 234.5,47.5 C 235.833,48.1667 235.833,48.1667 234.5,47.5 Z"/></g>
<g><path style="opacity:0.004" fill="#000000" d="M 210.5,64.5 C 211.833,65.1667 211.833,65.1667 210.5,64.5 Z"/></g>
<g><path style="opacity:0.004" fill="#000000" d="M 103.5,65.5 C 102.833,66.1667 102.833,66.1667 103.5,65.5 Z"/></g>
<g><path style="opacity:0.004" fill="#000000" d="M 209.5,70.5 C 210.833,71.1667 210.833,71.1667 209.5,70.5 Z"/></g>
<g><path style="opacity:0.004" fill="#000000" d="M 107.5,74.5 C 106.833,75.1667 106.833,75.1667 107.5,74.5 Z"/></g>
<g><path style="opacity:0.004" fill="#000000" d="M 108.5,76.5 C 107.833,77.1667 107.833,77.1667 108.5,76.5 Z"/></g>
<g><path style="opacity:0.004" fill="#000000" d="M 118.5,85.5 C 117.833,84.1667 117.833,84.1667 118.5,85.5 Z"/></g>
<g><path style="opacity:0.004" fill="#000000" d="M 210.5,85.5 C 211.833,86.1667 211.833,86.1667 210.5,85.5 Z"/></g>
<g><path style="opacity:0.004" fill="#000000" d="M 230.5,95.5 C 231.833,96.1667 231.833,96.1667 230.5,95.5 Z"/></g>
<g><path style="opacity:0.004" fill="#000000" d="M 109.5,122.5 C 108.833,121.167 108.833,121.167 109.5,122.5 Z"/></g>
<g><path style="opacity:0.004" fill="#000000" d="M 108.5,128.5 C 107.833,127.167 107.833,127.167 108.5,128.5 Z"/></g>
<g><path style="opacity:0.004" fill="#000000" d="M 107.5,134.5 C 106.833,133.167 106.833,133.167 107.5,134.5 Z"/></g>
<g><path style="opacity:0.004" fill="#000000" d="M 242.5,143.5 C 243.833,144.167 243.833,144.167 242.5,143.5 Z"/></g>
<g><path style="opacity:0.004" fill="#000000" d="M 241.5,150.5 C 242.833,151.167 242.833,151.167 241.5,150.5 Z"/></g>
<g><path style="opacity:0.004" fill="#000000" d="M 101.5,165.5 C 100.833,164.167 100.833,164.167 101.5,165.5 Z"/></g>
<g><path style="opacity:0.004" fill="#000000" d="M 236.5,176.5 C 237.833,177.167 237.833,177.167 236.5,176.5 Z"/></g>
<g><path style="opacity:0.004" fill="#000000" d="M 235.5,183.5 C 236.833,184.167 236.833,184.167 235.5,183.5 Z"/></g>
<g><path style="opacity:0.004" fill="#000000" d="M 210.5,325.5 C 211.833,326.167 211.833,326.167 210.5,325.5 Z"/></g>
<g><path style="opacity:0.004" fill="#000000" d="M 103.5,326.5 C 102.833,327.167 102.833,327.167 103.5,326.5 Z"/></g>
<g><path style="opacity:0.004" fill="#000000" d="M 113.5,329.5 C 112.833,330.167 112.833,330.167 113.5,329.5 Z"/></g>
<g><path style="opacity:0.004" fill="#000000" d="M 118.5,330.5 C 117.833,331.167 117.833,331.167 118.5,330.5 Z"/></g>
<g><path style="opacity:0.004" fill="#000000" d="M 209.5,332.5 C 210.833,333.167 210.833,333.167 209.5,332.5 Z"/></g>
<g><path style="opacity:0.004" fill="#000000" d="M 155.5,337.5 C 154.833,338.167 154.833,338.167 155.5,337.5 Z"/></g>
<g><path style="opacity:0.004" fill="#000000" d="M 205.5,341.5 C 206.833,342.167 206.833,342.167 205.5,341.5 Z"/></g>
<g><path style="opacity:0.004" fill="#000000" d="M 194.5,342.5 C 193.833,343.167 193.833,343.167 194.5,342.5 Z"/></g>
<g><path style="opacity:0.004" fill="#000000" d="M 203.5,342.5 C 204.833,343.167 204.833,343.167 203.5,342.5 Z"/></g>
</svg>
